<svg width="266" height="138" viewBox="0 0 266 138" fill="none" xmlns="http://www.w3.org/2000/svg">
<path d="M1.18136 65.0497C-2.14864 51.2077 1.47536 34.8337 13.1464 26.6807C28.2114 16.1567 49.1603 22.9687 64.7523 32.6957C80.3433 42.4227 95.4844 55.1977 113.827 56.3067C130.031 57.2867 145.32 48.7497 158.01 38.6247C170.699 28.5007 181.994 16.4557 196.037 8.31268C210.08 0.169683 228.207 -3.50332 242.42 4.34068C260.226 14.1667 265.096 37.3917 265.541 57.7237C265.962 76.9697 263.575 97.6417 251.082 112.289C237.207 128.557 214.321 133.498 193.027 135.416C134.034 140.728 18.7224 137.952 1.18136 65.0497Z" fill="#F50057"/>
</svg>
