<svg width="334" height="118" viewBox="0 0 334 118" fill="none" xmlns="http://www.w3.org/2000/svg">
<path d="M3.65839 117.652C-0.242607 111.449 -1.0546 103.697 1.3704 95.8236C4.5604 85.4656 13.0374 75.9715 22.9664 71.6345C39.5444 64.3925 57.8004 66.6906 78.2244 70.1766C95.7264 73.1656 115.565 76.5545 132.996 69.4055C148.473 63.0575 159.724 49.3025 170.604 36.0005C183.037 20.7995 195.893 5.08154 214.944 1.00654C234.991 -3.27746 254.413 6.89754 273.195 16.7385C292.605 26.9095 312.673 37.4275 332.864 31.2125L333.158 32.1675C312.579 38.5065 292.321 27.8905 272.731 17.6245C254.107 7.86454 234.851 -2.22946 215.153 1.98454C196.445 5.98554 184.269 20.8725 171.378 36.6325C160.418 50.0315 149.086 63.8865 133.375 70.3305C115.677 77.5875 95.6904 74.1745 78.0554 71.1625C57.7924 67.7035 39.6914 65.4185 23.3654 72.5505C13.6924 76.7765 5.43339 86.0275 2.32439 96.1175C0.670394 101.488 -0.294605 109.49 4.50339 117.119L3.65839 117.652Z" fill="#f50057"/>
</svg>
